HIERARCHY
ROOT hips
{
  OFFSET 0 10.680822821525009 1.3929502295107734
  CHANNELS 6 Xposition Yposition Zposition Yrotation Xrotation Zrotation
  JOINT spine
  {
    OFFSET -7.042017322922631e-31 0.6058489940359625 0
    CHANNELS 3 Yrotation Xrotation Zrotation
    JOINT chest
    {
      OFFSET 0 1.2699794144455032 0
      CHANNELS 3 Yrotation Xrotation Zrotation
      JOINT upperChest
      {
        OFFSET 0 1.217799211677689 0
        CHANNELS 3 Yrotation Xrotation Zrotation
        JOINT neck
        {
          OFFSET 0 1.5248826104153006 0
          CHANNELS 3 Yrotation Xrotation Zrotation
          JOINT head
          {
            OFFSET 0 0.8197772727844447 0
            CHANNELS 3 Yrotation Xrotation Zrotation
            JOINT leftEye
            {
              OFFSET 0.2793952361220866 0.6769952096623495 0.1830357412467788
              CHANNELS 3 Yrotation Xrotation Zrotation
              End Site
              {
                OFFSET 0.2793952361220866 0.6769952096623495 0.1830357412467788
              }
            }
            JOINT rightEye
            {
              OFFSET -0.27939522230689573 0.676995205357064 0.18303631459760622
              CHANNELS 3 Yrotation Xrotation Zrotation
              End Site
              {
                OFFSET -0.27939522230689573 0.676995205357064 0.18303631459760622
              }
            }
          }
        }
        JOINT leftShoulder
        {
          OFFSET 0.41486978509200423 1.1670505408695453 0
          CHANNELS 3 Yrotation Xrotation Zrotation
          JOINT leftUpperArm
          {
            OFFSET 0.9737926108153417 0 0
            CHANNELS 3 Yrotation Xrotation Zrotation
            JOINT leftLowerArm
            {
              OFFSET 2.5269332222665284 0 0
              CHANNELS 3 Yrotation Xrotation Zrotation
              JOINT leftHand
              {
                OFFSET 2.4263782738425914 0 0
                CHANNELS 3 Yrotation Xrotation Zrotation
                JOINT leftIndexProximal
                {
                  OFFSET 0.724320348022514 0.08170607082582437 0.20360061616140124
                  CHANNELS 3 Yrotation Xrotation Zrotation
                  JOINT leftIndexIntermediate
                  {
                    OFFSET 0.36548960630744587 -0.010566596513783999 -0.01414783573280308
                    CHANNELS 3 Yrotation Xrotation Zrotation
                    JOINT leftIndexDistal
                    {
                      OFFSET 0.22502819650693362 -0.007863819831430696 -0.007567681939621526
                      CHANNELS 3 Yrotation Xrotation Zrotation
                      End Site
                      {
                        OFFSET 0.22502819650693362 -0.007863819831430696 -0.007567681939621526
                      }
                    }
                  }
                }
                JOINT leftLittleProximal
                {
                  OFFSET 0.6720322998298205 0.08170601055037707 -0.3230036039466837
                  CHANNELS 3 Yrotation Xrotation Zrotation
                  JOINT leftLittleIntermediate
                  {
                    OFFSET 0.34583592281688713 5.476543019078406e-8 1.3869203337180114e-7
                    CHANNELS 3 Yrotation Xrotation Zrotation
                    JOINT leftLittleDistal
                    {
                      OFFSET 0.19925728062053938 0.003098047439490381 0.0038303983709246925
                      CHANNELS 3 Yrotation Xrotation Zrotation
                      End Site
                      {
                        OFFSET 0.19925728062053938 0.003098047439490381 0.0038303983709246925
                      }
                    }
                  }
                }
                JOINT leftMiddleProximal
                {
                  OFFSET 0.7300436596551069 0.0817073395107144 0.022661722987926763
                  CHANNELS 3 Yrotation Xrotation Zrotation
                  JOINT leftMiddleIntermediate
                  {
                    OFFSET 0.40758254347686607 -0.0000012383587111308714 2.408460318820138e-7
                    CHANNELS 3 Yrotation Xrotation Zrotation
                    JOINT leftMiddleDistal
                    {
                      OFFSET 0.2514490105498507 0.0000013869132886590307 9.738618134136345e-8
                      CHANNELS 3 Yrotation Xrotation Zrotation
                      End Site
                      {
                        OFFSET 0.2514490105498507 0.0000013869132886590307 9.738618134136345e-8
                      }
                    }
                  }
                }
                JOINT leftRingProximal
                {
                  OFFSET 0.7217261161191838 0.08170601902187746 -0.15043395722184966
                  CHANNELS 3 Yrotation Xrotation Zrotation
                  JOINT leftRingIntermediate
                  {
                    OFFSET 0.37808807487521556 0.0000013754022405443322 2.2046919317952884e-7
                    CHANNELS 3 Yrotation Xrotation Zrotation
                    JOINT leftRingDistal
                    {
                      OFFSET 0.21812105442344254 -0.002713483731960231 -0.004991354517454624
                      CHANNELS 3 Yrotation Xrotation Zrotation
                      End Site
                      {
                        OFFSET 0.21812105442344254 -0.002713483731960231 -0.004991354517454624
                      }
                    }
                  }
                }
                JOINT leftThumbProximal
                {
                  OFFSET 0.10793587079521427 -0.1652791240518252 -0.07775251827190094
                  CHANNELS 3 Yrotation Xrotation Zrotation
                  JOINT leftThumbIntermediate
                  {
                    OFFSET 0.40355819082296684 -0.017484006740276614 0.3177776014416309
                    CHANNELS 3 Yrotation Xrotation Zrotation
                    JOINT leftThumbDistal
                    {
                      OFFSET 0.2318764658022603 -0.018510186824293617 0.21396001800186287
                      CHANNELS 3 Yrotation Xrotation Zrotation
                      End Site
                      {
                        OFFSET 0.2318764658022603 -0.018510186824293617 0.21396001800186287
                      }
                    }
                  }
                }
              }
            }
          }
        }
        JOINT rightShoulder
        {
          OFFSET -0.4148697850920044 1.1670505408695453 0
          CHANNELS 3 Yrotation Xrotation Zrotation
          JOINT rightUpperArm
          {
            OFFSET -0.9737926108153414 0 0
            CHANNELS 3 Yrotation Xrotation Zrotation
            JOINT rightLowerArm
            {
              OFFSET -2.5269332222665293 0 0
              CHANNELS 3 Yrotation Xrotation Zrotation
              JOINT rightHand
              {
                OFFSET -2.42637827384259 0 0
                CHANNELS 3 Yrotation Xrotation Zrotation
                JOINT rightIndexProximal
                {
                  OFFSET -0.724320348022514 0.08170607082582437 0.20360061616140124
                  CHANNELS 3 Yrotation Xrotation Zrotation
                  JOINT rightIndexIntermediate
                  {
                    OFFSET -0.36548960630744587 -0.010566596513783999 -0.01414783573280308
                    CHANNELS 3 Yrotation Xrotation Zrotation
                    JOINT rightIndexDistal
                    {
                      OFFSET -0.22502819650693362 -0.007863819831430696 -0.007567681939621526
                      CHANNELS 3 Yrotation Xrotation Zrotation
                      End Site
                      {
                        OFFSET -0.22502819650693362 -0.007863819831430696 -0.007567681939621526
                      }
                    }
                  }
                }
                JOINT rightLittleProximal
                {
                  OFFSET -0.6720322998298205 0.08170601055037707 -0.3230036039466837
                  CHANNELS 3 Yrotation Xrotation Zrotation
                  JOINT rightLittleIntermediate
                  {
                    OFFSET -0.34583592281688713 5.476543019078406e-8 1.3869203337180114e-7
                    CHANNELS 3 Yrotation Xrotation Zrotation
                    JOINT rightLittleDistal
                    {
                      OFFSET -0.19925728062053938 0.003098047439490381 0.0038303983709246925
                      CHANNELS 3 Yrotation Xrotation Zrotation
                      End Site
                      {
                        OFFSET -0.19925728062053938 0.003098047439490381 0.0038303983709246925
                      }
                    }
                  }
                }
                JOINT rightMiddleProximal
                {
                  OFFSET -0.7300436596551069 0.0817073395107144 0.022661722987926763
                  CHANNELS 3 Yrotation Xrotation Zrotation
                  JOINT rightMiddleIntermediate
                  {
                    OFFSET -0.40758254347686607 -0.0000012383587111308714 2.408460318820138e-7
                    CHANNELS 3 Yrotation Xrotation Zrotation
                    JOINT rightMiddleDistal
                    {
                      OFFSET -0.2514490105498507 0.0000013869132886590307 9.738618134136345e-8
                      CHANNELS 3 Yrotation Xrotation Zrotation
                      End Site
                      {
                        OFFSET -0.2514490105498507 0.0000013869132886590307 9.738618134136345e-8
                      }
                    }
                  }
                }
                JOINT rightRingProximal
                {
                  OFFSET -0.7217261161191838 0.08170601902187746 -0.15043395722184966
                  CHANNELS 3 Yrotation Xrotation Zrotation
                  JOINT rightRingIntermediate
                  {
                    OFFSET -0.37808807487521556 0.0000013754022405443322 2.2046919317952884e-7
                    CHANNELS 3 Yrotation Xrotation Zrotation
                    JOINT rightRingDistal
                    {
                      OFFSET -0.21812105442344254 -0.002713483731960231 -0.004991354517454624
                      CHANNELS 3 Yrotation Xrotation Zrotation
                      End Site
                      {
                        OFFSET -0.21812105442344254 -0.002713483731960231 -0.004991354517454624
                      }
                    }
                  }
                }
                JOINT rightThumbProximal
                {
                  OFFSET -0.10793587079521427 -0.1652791240518252 -0.07775251827190094
                  CHANNELS 3 Yrotation Xrotation Zrotation
                  JOINT rightThumbIntermediate
                  {
                    OFFSET -0.40355819082296684 -0.017484006740276614 0.3177776014416309
                    CHANNELS 3 Yrotation Xrotation Zrotation
                    JOINT rightThumbDistal
                    {
                      OFFSET -0.2318764658022603 -0.018510186824293617 0.21396001800186287
                      CHANNELS 3 Yrotation Xrotation Zrotation
                      End Site
                      {
                        OFFSET -0.2318764658022603 -0.018510186824293617 0.21396001800186287
                      }
                    }
                  }
                }
              }
            }
          }
        }
      }
    }
  }
  JOINT leftUpperLeg
  {
    OFFSET 0.8486251390888677 -0.4421577294694363 0
    CHANNELS 3 Yrotation Xrotation Zrotation
    JOINT leftLowerLeg
    {
      OFFSET 0 -4.10147812638609 0
      CHANNELS 3 Yrotation Xrotation Zrotation
      JOINT leftFoot
      {
        OFFSET -0.0002543926476658853 -4.77292286812444 0.007402811231737388
        CHANNELS 3 Yrotation Xrotation Zrotation
        JOINT leftToes
        {
          OFFSET 0 -0.7027875951174846 1.2062924140498823
          CHANNELS 3 Yrotation Xrotation Zrotation
          End Site
          {
            OFFSET 0 -0.7027875951174846 1.2062924140498823
          }
        }
      }
    }
  }
  JOINT rightUpperLeg
  {
    OFFSET -0.8486251390888677 -0.4421577294694363 0
    CHANNELS 3 Yrotation Xrotation Zrotation
    JOINT rightLowerLeg
    {
      OFFSET 0 -4.10147812638609 0
      CHANNELS 3 Yrotation Xrotation Zrotation
      JOINT rightFoot
      {
        OFFSET 0.0002543926476658853 -4.77292286812444 0.007402811231737388
        CHANNELS 3 Yrotation Xrotation Zrotation
        JOINT rightToes
        {
          OFFSET 0 -0.7027875951174846 1.2062924140498823
          CHANNELS 3 Yrotation Xrotation Zrotation
          End Site
          {
            OFFSET 0 -0.7027875951174846 1.2062924140498823
          }
        }
      }
    }
  }
}
MOTION
Frames: 4
Frame Time: 0.03333333333333333
0.05255188047885895 -0.3406815251382902 0.008308624848723412 7.78039931878603 -1.8375865914851102 -3.5168016891976697 -0.601541614164699 1.8071301011409031 2.1881315735835694 0.39460634516017573 3.1957043476665494 7.023652345027851 0 0 0 -2.5467093319492404 2.5467569739576885 3.1201504319734656 -3.6082832392268624 -12.538975497501049 -2.5417102740085764 0 0 0 0 0 0 -11.071776516841757 -0.30600921751130244 -17.113827863731977 -8.941610964731456 10.515524017649707 -53.30177823108171 -21.836111445724903 0.05311057141606671 0.275299531375046 8.281792468171098 -21.700671851899823 -11.37726819149457 -4.950960838727074 -2.0508079438065328 -15.157068198698079 1.5648200044129144 0.24471580317958658 -17.776970748586802 0.8834999297957795 0.07672129671814396 -9.926986506281866 17.21640799107355 4.015437513447486 -24.314949082594016 2.5004716062305894 0.6512381419400042 -29.19432569866922 0.8834943809217254 0.07671157169398712 -9.926993822956414 4.1231725452165975 0.37819365567970664 -20.146671712268496 1.5648229915335836 0.24471953847335953 -17.77699397234441 0.8834821627278359 0.07670603550053805 -9.926978937354695 10.227213688200925 2.8035078174848826 -21.302917845610022 1.566338047405329 0.2451982964209854 -17.7947916906933 0.8835496562432948 0.07672056967587153 -9.927701519195608 -6.09980544269798 -5.965150464913931 5.331875044829573 22.148045532555912 6.755231313178477 4.621580245134018 12.354482498917212 -5.479844660775241 14.891032666971396 -0.2631996463255682 4.698094604810056 5.002457968611251 9.898897850634562 7.540268396092463 59.979277516182044 22.123323450770844 0.05450821950170119 -0.2787268629280022 1.0019688147280206 -2.1724286476879087 18.67049879359862 5.418445892215989 -2.004163554427493 14.293875079490522 -1.1998438905932685 0.18795466996238452 17.807157116884493 -0.6774556651442608 0.05893946031091075 9.943498235791486 -16.618523577833706 3.757703303529695 23.97490835813943 -1.9170793062470017 0.5002210747925031 29.246201427168145 -0.6774622814311476 0.05893623197760285 9.943490667249211 -3.5885833969405585 0.2732432070544779 19.48179017637969 -1.1998560542656849 0.18798607299330605 17.807157116884493 -0.677455558429956 0.058932430014823116 9.943494871994965 -9.689554429743886 2.6256310182395484 20.789825461176992 -1.2010191458419561 0.18836192218765863 17.8249968020915 -0.6775037399380835 0.05893876661945615 9.944213838061808 8.187059468874187 -6.826652811169007 -5.103991659226027 -24.01126531759655 6.887187188540999 -5.569484082519365 -18.41106813957578 -3.827171175911338 -15.82049587362871 11.419138486337106 -8.348376771702931 15.34182951155231 -8.933004395679527 14.005497228647597 3.666804938925964 -4.652929282943237 -8.420583775528277 -15.68200610170579 -0.000004784701809967299 -2.086147959036843 0.000003645078684143493 -6.3804198811876 -4.743529480286407 7.89612488241498 -9.741315737343285 20.464581941241395 0.5458848768992699 -3.4354616899761266 -14.692782219328294 -5.187180900002962 -0.0000042370644572396915 -2.698768435941638 0.0000013361700455438166
0.05352559685707092 -0.3408484181436613 0.006721810903400183 7.74546037941536 -1.8505367201846576 -3.520525862643397 -0.6195897312813382 1.804793229132471 2.185677769680404 0.36989680346962217 3.192644578565267 7.021813099496205 0 0 0 -2.5515368691143463 2.571963317551476 3.126599924063129 -3.6500952279289107 -12.396652956479965 -2.5081597901178663 0 0 0 0 0 0 -11.04923750324268 -0.2869765070680491 -17.03329955992661 -9.400636453475805 9.907302191979605 -53.49372152052597 -20.901298018115153 -0.05382180519370596 -0.09176383173873912 8.141646182145767 -21.586373212552655 -10.78965457363938 -4.876267573426008 -2.0479199147770064 -15.70102291711866 1.659108965096632 0.27595706447929896 -18.887126395322237 0.927855308221204 0.08467466636534186 -10.430884914985597 17.235077288947004 4.031667197710166 -24.7991743419064 2.588622423436784 0.7016472788055694 -30.328524051460136 0.9278644850943522 0.08467922872324649 -10.430884914985597 4.166671471076197 0.39437548869007194 -20.665284885811662 1.6591116320517205 0.27596586912215104 -18.887128010950683 0.9278530673568232 0.0846779213809229 -10.430865824051766 10.24177096465799 2.8691601984280006 -21.79619897913276 1.6610874921576293 0.2766356089742159 -18.910426795909796 0.9279152780192886 0.0846864124359132 -10.431616866436382 -6.09980123680488 -5.965135013322625 5.331848657177881 22.14805190298957 6.755204661170503 4.621614094533373 12.35447673788262 -5.4798270780601595 14.891025154214763 -0.2624861163203228 4.698142148992205 5.003255761524683 9.941619112877326 7.517050507413258 59.98935549954734 22.08588198920913 0.054291731088890995 -0.2782609847025278 1.0065534993323517 -2.170376196187676 18.690149979369973 5.4176154121985745 -2.0039683477507477 14.306413095901608 -1.2042015549707643 0.1893763708735619 17.873791635760487 -0.678208722008603 0.05907491690780865 9.954615414543131 -16.619318160791543 3.758051110328651 23.987391169673618 -1.9210639453266283 0.5024626899526144 29.312807952547477 -0.6782063742943472 0.05906707285826489 9.954618778225216 -3.589395681092135 0.2735302116688898 19.49431010641144 -1.2041877908359588 0.18936473814409413 17.873790010619278 -0.678209415651451 0.0590644114843128 9.954632823314904 -9.689858217158134 2.6272273308320666 20.80217420053915 -1.2053701600714888 0.1897607712215502 17.891787166956572 -0.6782602650073741 0.059069814273538995 9.955335472481714 8.163955800762048 -6.809379197269572 -5.090412926753447 -24.054616775251752 6.88966436480234 -5.579097081562334 -18.443778147914315 -3.8233929209050723 -15.825438840551676 11.41455403310974 -8.348554532749871 15.337505933599225 -8.895061006486676 14.041520944287868 3.6802874385650544 -4.650709531816208 -8.436705541879201 -15.685327564963762 -0.0000045636279392458535 -2.0848271501329574 -0.00000278171728134199 -6.379297028415189 -4.747639977516379 7.89215700868975 -9.709547995210492 20.481607536067038 0.5521431590579079 -3.432137474917274 -14.692543907710991 -5.194204560322269 8.680537867975396e-7 -2.7072496546044853 -8.654537202515663e-7
0.05544836074113846 -0.34106871691075114 0.0034943728242069483 7.695712328233622 -1.881658974670752 -3.5301853574820075 -0.6669587140364627 1.7980514887245571 2.180681286025618 0.30535381525836236 3.1853484566317114 7.016827661647214 0 0 0 -2.5585385529103344 2.6272185704441817 3.1328914056741812 -3.7273329433892863 -12.062781305560684 -2.4530958181021107 0 0 0 0 0 0 -11.001068686901066 -0.24671581301818127 -16.85375962897121 -10.469609599110127 8.76560827417102 -53.879955218741614 -19.312752586603096 -0.48647577000363246 -0.7433138653527193 7.799595308059626 -21.33314936223829 -9.4963940331222 -4.629081464233237 -2.057188451812452 -17.16414750161383 1.8646273928861798 0.3511845659846074 -21.333062082662316 1.0294271305951845 0.10443634496326004 -11.58762237181487 17.247622166186485 4.0700608405146435 -25.988886402309657 2.783871760393427 0.8217766648324276 -32.88912298287532 1.0294295848023611 0.10444726394592357 -11.58762891241145 4.278929969044368 0.4382376144653679 -22.011938681347544 1.8646271795517757 0.3511984667479114 -21.33306685439777 1.0294237160460622 0.10443670514961541 -11.587629748785432 10.26839985030145 3.0314089467232312 -23.038432002104866 1.8675856217266555 0.35234062396932253 -21.3685486170065 1.0294924338457367 0.10445058566453547 -11.588433126593541 -6.099810990848541 -5.965142309907353 5.331833699796062 22.14805319948486 6.755219706658695 4.621608524379271 12.354482498917212 -5.479838228074541 14.891018523103183 -0.26802049767554453 4.698915706141105 5.006158620958275 10.019978832737237 7.4710395200639335 60.010393028885005 22.016272576657528 0.053955664287442064 -0.2774110194228689 1.0089207209259343 -2.1503864592586814 18.724022362869764 5.413056969929901 -2.0027971081788865 14.37518592398329 -1.2279340566895416 0.197122196302107 18.23831632838143 -0.6823166012717099 0.05978813845124287 10.015527854143151 -16.623608068344172 3.7599693977980073 24.055710126147215 -1.9427953481667728 0.5147571947154153 29.677225876195845 -0.6823214034106169 0.05978881213237739 10.01551128570642 -3.5938149942151045 0.2751120055609482 19.562897014019413 -1.2279365107395959 0.19710818899532995 18.238293107651007 -0.6823199094118468 0.05978678441886358 10.015507922653581 -9.69146303974187 2.636035611482014 20.86985313340329 -1.2291562256356512 0.19752367239993335 18.257157843757575 -0.6823512300287237 0.05978778493539999 10.016236980130449 8.037558820311924 -6.71486250897219 -5.016233277404126 -24.291796917544353 6.903032998280956 -5.6317698905981635 -18.62271891003875 -3.8026810542356855 -15.85221405044565 11.406048639849638 -8.35705005193505 15.33585447233506 -8.848197707030117 14.123272059594298 3.688911257162645 -4.646588838610185 -8.469531155945697 -15.683924810101646 0.000003746492543313761 -2.0794928790011875 0.0000016968372910294076 -6.3752286646841245 -4.751816466543454 7.88988104548459 -9.670043138436222 20.51517396299258 0.549758763313048 -3.4288147629577113 -14.685205802364244 -5.192725442929822 -9.123475293727746e-7 -2.7113252163508084 0.0000021474526540160925
0.05736909434199333 -0.34109923448887614 0.0005022977129556239 7.6760603049326575 -1.9166092543300617 -3.540743728555131 -0.7276437821815692 1.7787190398888824 2.1760305174927552 0.22249305116322382 3.1634155090662026 7.009943735425749 0 0 0 -2.5605840336341164 2.6946499667465456 3.126618554277627 -3.791361436117467 -11.60013085522795 -2.4229775467452557 0 0 0 0 0 0 -10.933720726448122 -0.2036908374158897 -16.65293576259087 -11.709462384982753 7.764923300957477 -54.26248537271441 -18.23889868300049 -1.2520102384437917 -1.2715796719388621 7.286179150703697 -21.030454652034063 -7.984571524128242 -4.299588470943086 -2.070545440539182 -18.957143924150802 2.082941994685576 0.4423112222022435 -23.976567630733708 1.1419659769965511 0.12883281755490994 -12.87492030231859 17.242673378438752 4.112544453064229 -27.372802330293993 2.9922251977453684 0.9638838738685878 -35.70548250051567 1.1419596816504578 0.12882846863440564 -12.874903727447206 4.412394434214367 0.49439294298645736 -23.629784093992527 2.082931755866132 0.44230863412376076 -23.97657525955316 1.1419687512168546 0.12881787647833384 -12.874903727447206 10.290349267246576 3.220452193704023 -24.504891652752736 2.0869094886966857 0.44408037416583407 -24.025225807442485 1.1420506974141755 0.1288553625722601 -12.87581915021279 -6.099798614204825 -5.965153040179191 5.331831563027171 22.148043939947406 6.755223575498592 4.621588386129094 12.354474224388307 -5.479829222293678 14.891020180881117 -0.28330816370043854 4.700983241007045 5.0138926126245975 10.073500917995577 7.440061410831706 60.033047605989445 21.9607762803962 0.053682203135950284 -0.2767961860827234 0.9963315724779573 -2.1097125388546814 18.752440259812683 5.404138823005618 -2.0004868811564336 14.510059071567214 -1.2743260765479767 0.2126988625330047 18.953109195840685 -0.6903697529907747 0.061232297379288765 10.134896800496934 -16.632036495727807 3.7637499423518634 24.189683733549927 -1.985184159615767 0.5392480875955609 30.391800799619485 -0.6903619095105282 0.06121960415916023 10.134890917332793 -3.6024912958742 0.2782103328827088 19.6973692426694 -1.274332158222586 0.2127146974752198 18.95311676498441 -0.6903637236488188 0.061218510261051545 10.134892598236855 -9.694566740355056 2.653267963180493 21.00255059085226 -1.2756557660742665 0.21318027413228116 18.973678920633592 -0.6904228310079584 0.06123213729663868 10.135644105896807 7.789883286653975 -6.5296740660943495 -4.871054897360219 -24.75695786148113 6.928586242518371 -5.735286161213175 -18.973617893427317 -3.762286407202624 -15.904998193229035 11.397208558909313 -8.374996096426287 15.340999984668082 -8.838055755817603 14.212152867869918 3.674365221556066 -4.642990887558563 -8.501447968030941 -15.674141891365801 0.000005738445735317657 -2.069990979531812 -0.000006403896607843019 -6.371891270334332 -4.747166643688881 7.8922474387638974 -9.663497057031227 20.541180104087275 0.5318389241027299 -3.4273434795868107 -14.677082452174396 -5.183124635346839 -0.00000251594932774626 -2.6963623969369364 3.2481700721415886e-8
